<svg width="16" height="20" viewBox="0 0 16 20" fill="none" xmlns="http://www.w3.org/2000/svg">
<path d="M15.5303 6.53033C15.8232 6.23744 15.8232 5.76256 15.5303 5.46967L10.7574 0.696699C10.4645 0.403806 9.98959 0.403806 9.6967 0.696699C9.40381 0.989593 9.40381 1.46447 9.6967 1.75736L13.9393 6L9.6967 10.2426C9.40381 10.5355 9.40381 11.0104 9.6967 11.3033C9.98959 11.5962 10.4645 11.5962 10.7574 11.3033L15.5303 6.53033ZM1 6.75H15V5.25H1V6.75Z" fill="#303132"/>
<path d="M0.46967 14.5303C0.176777 14.2374 0.176777 13.7626 0.46967 13.4697L5.24264 8.6967C5.53553 8.40381 6.01041 8.40381 6.3033 8.6967C6.59619 8.98959 6.59619 9.46447 6.3033 9.75736L2.06066 14L6.3033 18.2426C6.59619 18.5355 6.59619 19.0104 6.3033 19.3033C6.01041 19.5962 5.53553 19.5962 5.24264 19.3033L0.46967 14.5303ZM15 14.75H1V13.25H15V14.75Z" fill="#303132"/>
</svg>
