<?xml version="1.0" encoding="utf-8"?>
<!-- Generator: Adobe Illustrator 24.0.0, SVG Export Plug-In . SVG Version: 6.00 Build 0)  -->
<svg version="1.1" id="Layer_1" xmlns="http://www.w3.org/2000/svg" xmlns:xlink="http://www.w3.org/1999/xlink" x="0px" y="0px"
	 viewBox="0 0 22 21.7" style="enable-background:new 0 0 22 21.7;" xml:space="preserve">
<style type="text/css">
	.st0{fill:#262626;}
	.st1{fill:#FFFFFF;}
	.st2{fill:none;stroke:#FFFFFF;stroke-miterlimit:10;}
	.st3{fill:none;stroke:#FFFFFF;stroke-width:1.5;stroke-miterlimit:10;}
	.st4{fill:none;stroke:#FFFFFF;stroke-linecap:round;stroke-linejoin:round;stroke-miterlimit:10;}
	.st5{opacity:0.43;}
	.st6{clip-path:url(#SVGID_2_);}
	.st7{clip-path:url(#SVGID_4_);enable-background:new    ;}
	.st8{clip-path:url(#SVGID_6_);}
	.st9{clip-path:url(#SVGID_8_);}
	.st10{clip-path:url(#SVGID_10_);fill:#FFFFFF;}
	.st11{clip-path:url(#SVGID_12_);}
	.st12{clip-path:url(#SVGID_14_);enable-background:new    ;}
	.st13{clip-path:url(#SVGID_16_);}
	.st14{clip-path:url(#SVGID_18_);}
	.st15{clip-path:url(#SVGID_20_);fill:#FFFFFF;}
	.st16{fill:none;stroke:#262626;stroke-miterlimit:10;}
	.st17{fill:none;stroke:#000000;stroke-linecap:round;stroke-linejoin:round;stroke-miterlimit:10;}
	.st18{fill:none;stroke:#1E43A3;stroke-linecap:round;stroke-linejoin:round;stroke-miterlimit:10;}
	.st19{fill:#1E43A3;}
	.st20{fill:none;stroke:#262626;stroke-linecap:round;stroke-linejoin:round;stroke-miterlimit:10;}
	.st21{fill:none;stroke:#262626;stroke-width:1.5;stroke-linecap:round;stroke-linejoin:round;stroke-miterlimit:10;}
</style>
<g class="st5">
	<defs>
		<rect id="SVGID_1_" x="-31.6" y="-109.8" class="st5" width="15.2" height="16"/>
	</defs>
	<clipPath id="SVGID_2_">
		<use xlink:href="#SVGID_1_"  style="overflow:visible;"/>
	</clipPath>
	<g class="st6">
		<defs>
			<rect id="SVGID_3_" x="-58.9" y="-495.7" width="1355.3" height="963.8"/>
		</defs>
		<clipPath id="SVGID_4_">
			<use xlink:href="#SVGID_3_"  style="overflow:visible;"/>
		</clipPath>
	</g>
</g>
<g class="st5">
	<defs>
		<rect id="SVGID_11_" x="-1.6" y="-134.8" class="st5" width="15.2" height="16"/>
	</defs>
	<clipPath id="SVGID_6_">
		<use xlink:href="#SVGID_11_"  style="overflow:visible;"/>
	</clipPath>
	<g class="st8">
		<defs>
			<rect id="SVGID_13_" x="-28.9" y="-520.7" width="1355.3" height="963.8"/>
		</defs>
		<clipPath id="SVGID_8_">
			<use xlink:href="#SVGID_13_"  style="overflow:visible;"/>
		</clipPath>
	</g>
</g>
<g>
	<path class="st0" d="M17.2,6c-0.1-3.3-2.9-6-6.2-6C7.6,0,4.9,2.7,4.8,6C3.2,6.2,2,7.1,2,8.2v10.5C2,20,3.4,21,5.2,21h11.7
		c1.8,0,3.2-1,3.2-2.2V8.2C20,7.1,18.8,6.2,17.2,6z M11,1.6c2.5,0,4.5,2,4.7,4.4H6.3C6.5,3.5,8.5,1.6,11,1.6z M16.8,19.2H5.2
		c-0.8,0-1.3-0.3-1.3-0.4l0-10.4c0.1-0.1,0.5-0.5,1.3-0.5h11.7c0.8,0,1.3,0.3,1.3,0.4l0,10.5C18.1,18.8,17.6,19.2,16.8,19.2z"/>
	<path class="st0" d="M11,9.2c-0.5,0-0.9,0.4-0.9,0.9v3.1c0,0.5,0.4,0.9,0.9,0.9s0.9-0.4,0.9-0.9v-3.1C11.9,9.7,11.5,9.2,11,9.2z"/>
</g>
</svg>
