<?xml version="1.0" encoding="utf-8"?>
<!-- Generator: Adobe Illustrator 23.0.2, SVG Export Plug-In . SVG Version: 6.00 Build 0)  -->
<svg version="1.1" id="Layer_1" xmlns="http://www.w3.org/2000/svg" xmlns:xlink="http://www.w3.org/1999/xlink" x="0px" y="0px"
	 viewBox="0 0 15 16" style="enable-background:new 0 0 15 16;" xml:space="preserve">
<style type="text/css">
	.st0{fill:#333333;}
</style>
<path class="st0" transform="rotate(90 7.5 8)" d="M4,6l2.7-2.7v8.2c0,0.4,0.3,0.8,0.8,0.8s0.8-0.3,0.8-0.8V3.3L11,6c0.1,0.1,0.3,0.2,0.5,0.2S11.9,6.2,12,6
	c0.3-0.3,0.3-0.8,0-1.1L8,1C8,0.9,7.9,0.8,7.8,0.8c-0.2-0.1-0.4-0.1-0.6,0C7.1,0.8,7,0.9,7,1L3,5C2.7,5.3,2.7,5.7,3,6S3.7,6.3,4,6z"
	/>
<path class="st0" transform="rotate(90 7.5 8)" d="M12.8,8.5v5.2H2.2V8.5H0.8v6c0,0.4,0.3,0.8,0.8,0.8h12c0.4,0,0.8-0.3,0.8-0.8v-6H12.8z"/>
</svg>
