<?xml version="1.0" encoding="utf-8"?>
<!-- Generator: Adobe Illustrator 24.3.0, SVG Export Plug-In . SVG Version: 6.00 Build 0)  -->
<svg version="1.1" id="Layer_1" xmlns="http://www.w3.org/2000/svg" xmlns:xlink="http://www.w3.org/1999/xlink" x="0px" y="0px"
	 viewBox="0 0 21.9 23.9" style="enable-background:new 0 0 21.9 23.9;" xml:space="preserve">
<style type="text/css">
	.st0{fill:#262626;}
</style>
<g>
	<path class="st0" d="M16.1,5V3.2h-5.1v0.1c-0.1,0-0.1,0-0.2,0.1L8.9,5H4v15.7h13.9V5H16.1z M12.6,4.7h2.1V5v0.8V7l-1-1.4l-1,1.4
		V5.7V5V4.7z M16.4,19.2H5.5V6.5h5.6v5.1l2.5-3.4l2.5,3.4V6.5h0.3V19.2z"/>
	<g>
		<path class="st0" d="M12.2,12.8H7c-0.3,0-0.5-0.2-0.5-0.5s0.2-0.5,0.5-0.5h5.2c0.3,0,0.5,0.2,0.5,0.5S12.5,12.8,12.2,12.8z"/>
	</g>
	<g>
		<path class="st0" d="M12.2,14.6H7c-0.3,0-0.5-0.2-0.5-0.5s0.2-0.5,0.5-0.5h5.2c0.3,0,0.5,0.2,0.5,0.5S12.5,14.6,12.2,14.6z"/>
	</g>
	<g>
		<path class="st0" d="M12.2,16.4H7c-0.3,0-0.5-0.2-0.5-0.5s0.2-0.5,0.5-0.5h5.2c0.3,0,0.5,0.2,0.5,0.5S12.5,16.4,12.2,16.4z"/>
	</g>
	<g>
		<path class="st0" d="M12.2,18.2H7c-0.3,0-0.5-0.2-0.5-0.5s0.2-0.5,0.5-0.5h5.2c0.3,0,0.5,0.2,0.5,0.5S12.5,18.2,12.2,18.2z"/>
	</g>
</g>
</svg>
