<?xml version="1.0" encoding="utf-8"?>
<!-- Generator: Adobe Illustrator 24.0.0, SVG Export Plug-In . SVG Version: 6.00 Build 0)  -->
<svg version="1.1" id="Layer_1" xmlns="http://www.w3.org/2000/svg" xmlns:xlink="http://www.w3.org/1999/xlink" x="0px" y="0px"
	 viewBox="0 0 22 21.7" style="enable-background:new 0 0 22 21.7;" xml:space="preserve">
<style type="text/css">
	.st0{fill:#262626;}
	.st1{fill:#FFFFFF;}
	.st2{fill:none;stroke:#FFFFFF;stroke-miterlimit:10;}
	.st3{fill:none;stroke:#FFFFFF;stroke-width:1.5;stroke-miterlimit:10;}
	.st4{fill:none;stroke:#FFFFFF;stroke-linecap:round;stroke-linejoin:round;stroke-miterlimit:10;}
	.st5{opacity:0.43;}
	.st6{clip-path:url(#SVGID_2_);}
	.st7{clip-path:url(#SVGID_4_);enable-background:new    ;}
	.st8{clip-path:url(#SVGID_6_);}
	.st9{clip-path:url(#SVGID_8_);}
	.st10{clip-path:url(#SVGID_10_);fill:#FFFFFF;}
	.st11{clip-path:url(#SVGID_12_);}
	.st12{clip-path:url(#SVGID_14_);enable-background:new    ;}
	.st13{clip-path:url(#SVGID_16_);}
	.st14{clip-path:url(#SVGID_18_);}
	.st15{clip-path:url(#SVGID_20_);fill:#FFFFFF;}
	.st16{fill:none;stroke:#262626;stroke-miterlimit:10;}
	.st17{fill:none;stroke:#000000;stroke-linecap:round;stroke-linejoin:round;stroke-miterlimit:10;}
	.st18{fill:none;stroke:#1E43A3;stroke-linecap:round;stroke-linejoin:round;stroke-miterlimit:10;}
	.st19{fill:#1E43A3;}
	.st20{fill:none;stroke:#262626;stroke-linecap:round;stroke-linejoin:round;stroke-miterlimit:10;}
	.st21{fill:none;stroke:#262626;stroke-width:1.5;stroke-linecap:round;stroke-linejoin:round;stroke-miterlimit:10;}
</style>
<g class="st5">
	<defs>
		<rect id="SVGID_1_" x="-31.6" y="-83.8" class="st5" width="15.2" height="16"/>
	</defs>
	<clipPath id="SVGID_2_">
		<use xlink:href="#SVGID_1_"  style="overflow:visible;"/>
	</clipPath>
	<g class="st6">
		<defs>
			<rect id="SVGID_3_" x="-58.9" y="-469.7" width="1355.3" height="963.8"/>
		</defs>
		<clipPath id="SVGID_4_">
			<use xlink:href="#SVGID_3_"  style="overflow:visible;"/>
		</clipPath>
	</g>
</g>
<g class="st5">
	<defs>
		<rect id="SVGID_11_" x="-1.6" y="-108.8" class="st5" width="15.2" height="16"/>
	</defs>
	<clipPath id="SVGID_6_">
		<use xlink:href="#SVGID_11_"  style="overflow:visible;"/>
	</clipPath>
	<g class="st8">
		<defs>
			<rect id="SVGID_13_" x="-28.9" y="-494.7" width="1355.3" height="963.8"/>
		</defs>
		<clipPath id="SVGID_8_">
			<use xlink:href="#SVGID_13_"  style="overflow:visible;"/>
		</clipPath>
	</g>
</g>
<path class="st0" d="M10.9,0.2C4.9,0.2,0.1,5.1,0.1,11s4.8,10.8,10.8,10.8S21.6,16.9,21.6,11S16.8,0.2,10.9,0.2z M1.6,11
	c0-0.9,0.1-1.9,0.4-2.7h4.6v5.5H2C1.8,12.9,1.6,11.9,1.6,11z M8.1,8.3h5.5v5.5H8.1V8.3z M15.1,8.3h4.6c0.3,0.9,0.4,1.8,0.4,2.7
	s-0.1,1.9-0.4,2.7h-4.6V8.3z M19.1,6.8h-4v-4C16.8,3.7,18.2,5.1,19.1,6.8z M13.6,2.2v4.6H8.1V2.2C9,1.9,9.9,1.8,10.9,1.8
	S12.7,1.9,13.6,2.2z M6.6,2.8v4h-4C3.5,5.1,4.9,3.7,6.6,2.8z M2.7,15.2h4v4C4.9,18.3,3.5,16.9,2.7,15.2z M8.1,19.8v-4.6h5.5v4.6
	c-0.9,0.3-1.8,0.4-2.7,0.4S9,20.1,8.1,19.8z M15.1,19.2v-4h4C18.2,16.9,16.8,18.3,15.1,19.2z"/>
</svg>
