<?xml version="1.0" encoding="utf-8"?>
<!-- Generator: Adobe Illustrator 24.3.0, SVG Export Plug-In . SVG Version: 6.00 Build 0)  -->
<svg version="1.1" id="Layer_1" xmlns="http://www.w3.org/2000/svg" x="0px" y="0px"
     viewBox="0 0 18 15" style="enable-background:new 0 0 18 15;" xml:space="preserve">
<style type="text/css">
	.st0{fill:none;}
	.st1{fill:#262626;}
</style>
<g>
	<polygon class="st0" points="11,2.3 14,2.3 13.9,1.8 	"/>
	<path class="st0" d="M9.5,11.5V6.4c0-0.4,0.3-0.8,0.8-0.8h5.1V3.8H1.8v9.4h13.7v-1h-5.1C9.8,12.2,9.5,11.9,9.5,11.5z"/>
	<polygon class="st0" points="11,7.2 11,10.7 15.4,10.7 16.2,10.7 16.2,7.2 15.4,7.2 	"/>
	<path class="st1" d="M13.9,1.8L14,2.3h1.5l-0.3-1.5c-0.1-0.4-0.5-0.7-0.9-0.6L2.2,2.3H11L13.9,1.8z"/>
	<path class="st1" d="M17,5.7L17,5.7l-0.1-2.6c0-0.4-0.3-0.8-0.8-0.8h-0.6H14h-3H2.2H1c-0.4,0-0.8,0.3-0.8,0.8V14
		c0,0.4,0.3,0.8,0.8,0.8h15.2c0.4,0,0.8-0.3,0.8-0.8v-1.8H17c0.4,0,0.8-0.3,0.8-0.8V6.4C17.8,6,17.4,5.7,17,5.7z M15.4,13.3H1.8V3.8
		h13.7v1.9h-5.1C9.8,5.7,9.5,6,9.5,6.4v5.1c0,0.4,0.3,0.8,0.8,0.8h5.1V13.3z M16.2,10.7h-0.8H11V7.2h4.4h0.8V10.7z"/>
</g>
<circle class="st1" cx="13.6" cy="9" r="0.8"/>
</svg>
